<?xml version="1.0" standalone="no"?>
<!DOCTYPE svg PUBLIC "-//W3C//DTD SVG 20010904//EN"
 "http://www.w3.org/TR/2001/REC-SVG-20010904/DTD/svg10.dtd">
<svg version="1.0" xmlns="http://www.w3.org/2000/svg"
 width="500.000000pt" height="500.000000pt" viewBox="0 0 500.000000 500.000000"
 preserveAspectRatio="xMidYMid meet">
<metadata>
Created by potrace 1.14, written by Peter Selinger 2001-2017
</metadata>
<g transform="translate(0.000000,500.000000) scale(0.100000,-0.100000)"
fill="#000000" stroke="none">
<path d="M1788 4666 c-10 -7 -18 -18 -18 -24 0 -6 -7 -15 -16 -20 -9 -5 -15
-12 -15 -16 2 -8 -29 -69 -39 -76 -3 -3 -17 -27 -31 -53 -13 -26 -28 -57 -34
-67 -5 -11 -13 -20 -18 -20 -4 0 -5 -4 -2 -10 3 -5 1 -10 -4 -10 -6 0 -11 -7
-11 -15 0 -7 -7 -18 -16 -23 -9 -5 -15 -11 -13 -13 5 -10 -13 -49 -23 -49 -6
0 -9 -3 -5 -6 3 -3 -5 -25 -19 -47 -14 -23 -29 -54 -35 -69 -6 -16 -15 -25
-20 -22 -5 3 -9 2 -8 -3 1 -4 0 -10 -1 -13 -1 -3 -3 -12 -5 -20 -7 -32 -53
-109 -60 -102 -5 4 -5 2 -1 -5 7 -13 -13 -63 -26 -63 -5 0 -7 -4 -3 -9 3 -5 1
-12 -5 -16 -5 -3 -10 -15 -10 -26 0 -10 -5 -19 -11 -19 -6 0 -8 -7 -5 -16 3
-8 2 -12 -3 -9 -5 3 -13 -5 -16 -17 -13 -43 -48 -113 -59 -120 -6 -4 -8 -8 -4
-8 4 0 -7 -28 -25 -62 -17 -35 -30 -66 -29 -70 1 -5 -3 -8 -8 -8 -6 0 -10 -9
-10 -20 0 -11 -5 -20 -11 -20 -5 0 -7 -4 -4 -10 3 -5 1 -10 -4 -10 -6 0 -11
-9 -11 -20 0 -11 -5 -20 -11 -20 -5 0 -8 -4 -5 -8 3 -5 -3 -18 -13 -28 -9 -11
-16 -25 -13 -32 2 -6 -1 -12 -8 -12 -6 0 -8 -4 -5 -10 3 -5 1 -10 -4 -10 -6 0
-10 -3 -9 -7 1 -5 -4 -21 -11 -38 -7 -16 -13 -32 -13 -35 0 -3 -7 -14 -14 -25
-8 -11 -14 -27 -14 -37 0 -10 -5 -18 -12 -18 -6 0 -9 -3 -6 -6 8 -7 -31 -97
-46 -106 -7 -5 -6 -8 4 -8 9 0 11 -3 5 -8 -19 -13 -31 -56 -26 -86 6 -29 15
-34 81 -51 8 -2 89 -22 180 -45 149 -38 372 -86 410 -89 8 0 41 -3 73 -5 49
-4 60 -2 78 17 11 12 22 32 25 44 4 13 10 23 15 23 5 0 9 4 9 10 0 5 13 32 30
60 16 27 26 50 22 50 -4 0 1 5 11 11 9 6 15 14 12 18 -2 5 2 14 10 21 8 7 15
19 15 26 0 8 4 14 9 14 5 0 12 11 15 25 4 14 11 25 17 25 6 0 7 5 4 10 -3 6
-2 10 3 10 4 0 14 16 22 35 8 19 16 35 20 35 3 0 14 17 25 38 10 20 26 45 34
55 8 9 10 17 5 17 -5 0 -4 4 3 8 6 4 13 14 15 22 2 8 11 21 21 28 9 7 15 18
12 23 -4 5 -1 9 5 9 6 0 8 5 5 10 -3 6 1 10 10 10 9 0 13 -4 10 -10 -3 -5 -2
-10 4 -10 11 0 9 -19 -3 -39 -6 -10 -5 -12 2 -7 12 7 13 3 15 -61 1 -18 3 -33
7 -33 3 0 6 -21 8 -48 1 -26 7 -49 13 -50 6 -3 6 -9 -2 -18 -8 -10 -8 -14 0
-14 6 0 11 -17 11 -39 0 -22 5 -43 10 -46 6 -4 8 -11 5 -16 -4 -5 -2 -9 4 -9
6 0 8 -7 5 -15 -4 -8 -1 -15 6 -15 6 0 9 -3 7 -7 -3 -5 1 -14 9 -21 8 -7 14
-9 14 -5 0 4 4 3 8 -4 4 -6 36 -14 71 -18 36 -3 79 -8 95 -10 116 -14 225 -18
388 -17 153 1 194 4 223 18 22 10 35 23 35 35 0 11 4 19 9 19 5 0 12 12 16 27
3 15 14 33 23 41 11 9 12 11 2 6 -13 -7 -13 -6 0 12 8 10 17 21 20 24 3 3 21
37 40 75 19 39 37 72 41 75 6 5 16 30 17 43 1 4 8 15 17 23 8 9 12 20 9 26 -4
7 -2 8 4 4 7 -4 12 -2 12 3 0 22 2 26 17 44 9 9 12 17 7 17 -5 0 -1 5 9 11 9
6 15 14 12 20 -4 5 -1 9 4 9 6 0 11 3 10 8 -2 15 14 52 22 52 5 0 9 6 9 14 0
7 7 19 15 26 8 7 13 16 10 20 -3 5 2 15 10 24 9 8 16 19 15 23 0 4 7 16 15 26
8 9 12 17 9 17 -2 0 13 34 36 75 22 42 40 82 40 89 0 8 7 19 15 26 9 7 13 15
10 18 -2 3 3 11 13 19 9 8 12 12 5 9 -8 -4 -7 4 3 23 21 41 25 71 11 71 -8 0
-8 3 2 9 23 14 3 48 -38 65 -21 8 -90 28 -152 45 -127 34 -194 55 -318 100
-46 17 -95 31 -108 31 -27 0 -85 -39 -77 -52 3 -4 1 -8 -4 -8 -6 0 -23 -21
-38 -47 -15 -27 -31 -51 -36 -54 -6 -3 -8 -9 -6 -12 1 -4 -4 -14 -12 -24 -8
-10 -22 -32 -30 -48 -8 -17 -19 -35 -25 -42 -5 -7 -15 -18 -21 -25 -11 -14
-14 -22 -14 -39 0 -5 -4 -7 -10 -4 -5 3 -12 -6 -16 -20 -3 -14 -10 -25 -16
-25 -5 0 -6 -4 -3 -10 3 -5 1 -10 -5 -10 -6 0 -16 -11 -22 -25 -13 -28 -38
-34 -34 -7 2 9 -2 20 -8 24 -8 5 -7 8 2 8 9 0 10 5 4 18 -5 9 -8 29 -7 45 1
15 -1 27 -5 27 -9 0 -5 44 6 61 4 7 3 10 -3 6 -10 -6 -16 57 -17 171 0 23 -3
42 -6 42 -3 0 -6 25 -7 56 -2 31 -7 62 -12 68 -6 7 -6 18 -1 26 5 8 6 19 2 25
-3 5 -7 16 -8 23 -4 21 -16 146 -17 162 -1 44 -94 77 -241 85 -168 10 -217 14
-244 19 -111 21 -243 27 -264 12z"/>
<path d="M3767 3300 c-208 -106 -272 -141 -321 -180 -48 -37 -106 -96 -106
-107 0 -7 -5 -13 -11 -13 -5 0 -7 -4 -4 -10 3 -5 1 -10 -5 -10 -6 0 -8 -4 -5
-10 3 -5 3 -10 -2 -10 -7 0 -10 -18 -13 -75 0 -5 2 -26 4 -45 3 -19 7 -48 8
-65 2 -16 7 -33 11 -36 5 -3 10 -21 12 -40 2 -19 4 -34 5 -34 2 0 9 -37 12
-62 1 -13 6 -23 11 -23 5 0 7 -6 4 -14 -3 -8 -3 -17 1 -20 3 -4 7 -12 8 -19 1
-7 5 -25 9 -42 4 -16 7 -38 8 -47 1 -10 4 -18 7 -18 3 0 7 -13 8 -29 1 -16 9
-48 17 -71 8 -23 12 -46 9 -51 -3 -5 -1 -9 3 -9 5 0 10 -10 11 -22 3 -30 7
-49 16 -70 4 -9 5 -21 2 -27 -4 -5 -2 -12 4 -16 6 -4 8 -11 5 -16 -4 -5 -2 -9
2 -9 5 0 9 -8 10 -17 3 -45 22 -104 41 -125 8 -10 11 -18 6 -18 -12 0 37 -34
56 -38 101 -24 380 46 380 95 0 7 4 13 8 13 5 0 14 12 20 26 9 18 9 23 1 18
-8 -4 -8 0 0 15 8 14 8 21 1 21 -7 0 -8 6 0 19 5 11 6 22 2 25 -5 3 -9 20 -10
38 0 18 -6 34 -12 36 -8 3 -8 8 0 17 8 9 8 15 0 20 -5 3 -10 15 -10 25 0 10
-6 21 -12 23 -10 4 -10 6 -1 6 7 1 10 7 7 15 -3 9 10 17 43 26 119 32 153 50
169 88 8 20 12 42 10 49 -3 7 -1 13 5 13 6 0 7 5 4 10 -6 10 -12 47 -18 115
-1 17 -5 33 -10 36 -4 3 -10 16 -12 30 -3 13 -9 25 -15 27 -6 2 -8 8 -4 13 3
5 -1 9 -10 9 -8 0 -16 4 -18 10 -5 16 -69 18 -143 4 -38 -7 -78 -13 -87 -13
-15 -1 -29 21 -27 43 0 5 -4 12 -11 16 -13 8 20 32 60 45 14 4 27 10 30 14 3
3 27 17 55 31 74 37 100 70 101 130 0 28 -2 50 -5 50 -4 0 -8 9 -9 20 -4 42
-6 50 -12 50 -3 0 -7 10 -7 22 -1 13 -8 27 -16 33 -8 5 -12 16 -10 23 3 6 0
12 -6 12 -6 0 -11 9 -11 19 0 11 -4 21 -9 23 -5 2 -11 9 -13 17 -7 31 -48 63
-85 67 -31 3 -57 -6 -136 -46z"/>
<path d="M2350 2768 c-25 -4 -58 -10 -75 -12 -16 -3 -31 -6 -32 -7 -2 -1 -6
-2 -10 -3 -29 -6 -99 -34 -163 -64 -85 -40 -232 -136 -223 -146 4 -3 0 -6 -8
-6 -8 0 -39 -28 -69 -61 -30 -34 -63 -70 -72 -80 -10 -11 -18 -21 -18 -24 0
-6 -14 -24 -42 -56 -10 -10 -15 -19 -12 -19 4 0 2 -6 -3 -12 -23 -29 -73 -130
-68 -138 3 -4 -2 -11 -11 -14 -9 -4 -14 -9 -11 -12 3 -3 -3 -23 -14 -45 -12
-21 -18 -43 -14 -49 3 -5 2 -10 -3 -10 -10 0 -35 -78 -37 -115 0 -11 -5 -27
-10 -35 -5 -8 -11 -26 -12 -40 -8 -61 -11 -85 -13 -85 -3 0 -8 -39 -15 -105
-7 -71 -7 -259 0 -330 8 -81 12 -114 15 -120 1 -3 2 -9 1 -14 -1 -4 4 -14 10
-22 9 -11 9 -14 -1 -14 -10 0 -10 -3 0 -15 7 -8 10 -15 7 -15 -3 0 -1 -15 4
-32 5 -18 12 -46 14 -61 3 -16 7 -34 8 -40 1 -7 5 -15 9 -18 5 -3 9 -17 10
-32 1 -15 6 -27 11 -27 4 0 5 -4 2 -10 -3 -5 -2 -10 4 -10 6 0 8 -7 5 -15 -4
-8 -1 -15 6 -15 6 0 9 -4 5 -9 -3 -5 0 -13 6 -16 5 -4 8 -13 5 -21 -3 -8 -1
-14 4 -14 6 0 10 -6 10 -13 0 -7 9 -23 19 -34 11 -12 18 -23 15 -26 -3 -3 6
-17 20 -32 14 -15 23 -32 20 -37 -3 -4 -2 -7 3 -6 4 1 24 -13 43 -32 42 -41
78 -70 86 -70 3 0 19 -9 35 -21 16 -11 29 -17 29 -14 0 4 10 1 23 -7 19 -12
112 -44 112 -38 0 1 13 -3 28 -9 65 -25 306 -35 429 -18 78 11 250 56 267 70
8 7 15 10 15 8 2 -7 76 23 76 31 0 4 3 7 8 7 12 -3 72 25 72 33 0 4 7 8 15 8
8 0 15 5 15 10 0 6 6 10 14 10 8 0 21 6 28 13 7 7 29 24 48 37 39 26 52 38
123 104 26 25 47 50 47 56 0 6 5 8 10 5 6 -3 10 0 10 8 0 8 7 17 15 21 8 3 15
12 15 21 0 8 5 15 10 15 6 0 10 6 10 13 0 8 9 24 20 37 11 12 17 26 15 30 -3
4 2 13 10 20 8 7 15 18 15 24 0 6 -5 4 -10 -4 -5 -8 -10 -10 -10 -4 0 6 7 17
15 24 8 7 12 16 9 21 -3 5 -1 9 4 9 11 0 9 30 -3 49 -5 10 -4 12 3 7 14 -8 14
-9 15 67 0 33 5 57 11 57 6 0 4 5 -4 10 -11 7 -11 10 -2 10 7 0 11 4 8 9 -3 5
-8 40 -10 77 -5 75 -26 128 -58 145 -27 15 -81 4 -223 -43 -66 -22 -124 -41
-130 -42 -15 -4 -65 -25 -103 -43 -18 -9 -45 -32 -60 -51 -37 -49 -75 -87 -84
-84 -5 1 -8 -3 -8 -8 0 -16 -63 -12 -88 6 -35 24 -70 62 -64 68 3 3 0 6 -6 6
-7 0 -12 3 -11 8 2 14 -13 52 -22 52 -4 0 -6 9 -4 20 2 11 0 20 -5 20 -5 0 -7
9 -5 20 2 11 0 20 -6 20 -5 0 -9 7 -9 15 0 8 6 15 13 15 9 0 9 2 0 8 -10 6
-10 30 0 145 1 9 4 17 7 17 3 0 14 15 24 34 30 57 102 73 174 39 48 -22 56
-31 73 -76 7 -21 26 -46 42 -56 27 -17 30 -17 80 0 29 10 64 20 77 23 14 2 36
9 50 14 14 5 27 10 30 10 15 2 127 40 170 59 89 38 140 68 145 85 4 10 10 18
15 18 5 0 7 9 5 20 -2 11 2 20 8 20 8 0 8 3 2 8 -6 4 -11 21 -12 37 -2 36 -9
96 -18 150 -3 22 -7 46 -7 53 -1 6 -4 12 -8 12 -4 0 -7 6 -8 13 -4 32 -11 64
-20 88 -6 15 -8 30 -5 33 4 3 2 6 -4 6 -5 0 -16 19 -24 43 -7 23 -23 61 -36
84 -12 22 -19 44 -16 47 4 3 1 6 -5 6 -7 0 -12 7 -12 16 0 8 -4 12 -10 9 -5
-3 -10 0 -10 8 0 7 -9 23 -20 35 -11 12 -20 26 -20 32 0 6 -4 8 -10 5 -10 -6
-15 9 -10 30 1 6 -2 7 -6 3 -4 -4 -16 3 -28 15 -31 35 -111 97 -125 97 -6 0
-11 5 -11 10 0 6 -6 10 -14 10 -8 0 -16 4 -18 8 -4 9 -150 67 -198 78 -19 4
-42 9 -50 11 -34 9 -228 10 -270 1z"/>
</g>
</svg>
